# xmcd
#
# Track frame offsets: 
#        150
#        25393
#        47196
#        70302
#        94708
#        113249
#        135307
#        158512
#        181489
#        206141
#
# Disc length: 3020 seconds
#
# Revision: 0
# Processed by: cddbd v1.5.2PL0 Copyright (c) Steve Scherf et al.
# Submitted via: ExactAudioCopy v1.0b3
#
DISCID=870bca0a
DTITLE=Manh Quynh - Nguoi Tinh va Que Huong
DYEAR=1997
DGENRE=
TTITLE0=Ngoai o buon
TTITLE1=Ai cho toi tinh yeu
TTITLE2=Linh tran mien xa
TTITLE3=Nguoi tinh va que huong
TTITLE4=Duong khuya
TTITLE5=Nguoi ngoai pho
TTITLE6=Da ta
TTITLE7=Xin tra toi ve
TTITLE8=Ao cuoi mau hoa ca
TTITLE9=Han Do Ban
EXTD=
EXTT0=
EXTT1=
EXTT2=
EXTT3=
EXTT4=
EXTT5=
EXTT6=
EXTT7=
EXTT8=
EXTT9=
PLAYORDER=
